<?xml version="1.0" encoding="utf-8"?>
<svg version="1.1" id="Layer_1_copy_2" xmlns="http://www.w3.org/2000/svg" xmlns:xlink="http://www.w3.org/1999/xlink" x="0px"
	 y="0px" width="30px" height="30px" viewBox="0 0 30 30" style="enable-background:new 0 0 30 30;" xml:space="preserve">
<style type="text/css">
	.st0{fill:#FFFFFF;}
</style>
<path class="st0" d="M11.25,19.875v0.75c0,0.1016-0.0371,0.1895-0.1113,0.2637S10.9766,21,10.875,21h-0.75
	c-0.1016,0-0.1895-0.0371-0.2637-0.1113S9.75,20.7266,9.75,20.625v-0.75c0-0.1016,0.0371-0.1895,0.1113-0.2637
	S10.0234,19.5,10.125,19.5h0.75c0.1016,0,0.1895,0.0371,0.2637,0.1113S11.25,19.7734,11.25,19.875z M11.25,16.875v0.75
	c0,0.1016-0.0371,0.1895-0.1113,0.2637S10.9766,18,10.875,18h-0.75c-0.1016,0-0.1895-0.0371-0.2637-0.1113S9.75,17.7266,9.75,17.625
	v-0.75c0-0.1016,0.0371-0.1895,0.1113-0.2637S10.0234,16.5,10.125,16.5h0.75c0.1016,0,0.1895,0.0371,0.2637,0.1113
	S11.25,16.7734,11.25,16.875z M14.25,16.875v0.75c0,0.1016-0.0371,0.1895-0.1113,0.2637S13.9766,18,13.875,18h-0.75
	c-0.1016,0-0.1895-0.0371-0.2637-0.1113S12.75,17.7266,12.75,17.625v-0.75c0-0.1016,0.0371-0.1895,0.1113-0.2637
	S13.0234,16.5,13.125,16.5h0.75c0.1016,0,0.1895,0.0371,0.2637,0.1113S14.25,16.7734,14.25,16.875z M11.25,13.875v0.75
	c0,0.1016-0.0371,0.1895-0.1113,0.2637S10.9766,15,10.875,15h-0.75c-0.1016,0-0.1895-0.0371-0.2637-0.1113S9.75,14.7266,9.75,14.625
	v-0.75c0-0.1016,0.0371-0.1895,0.1113-0.2637S10.0234,13.5,10.125,13.5h0.75c0.1016,0,0.1895,0.0371,0.2637,0.1113
	S11.25,13.7734,11.25,13.875z M20.25,19.875v0.75c0,0.1016-0.0371,0.1895-0.1113,0.2637S19.9766,21,19.875,21h-0.75
	c-0.1016,0-0.1895-0.0371-0.2637-0.1113S18.75,20.7266,18.75,20.625v-0.75c0-0.1016,0.0371-0.1895,0.1113-0.2637
	S19.0234,19.5,19.125,19.5h0.75c0.1016,0,0.1895,0.0371,0.2637,0.1113S20.25,19.7734,20.25,19.875z M17.25,16.875v0.75
	c0,0.1016-0.0371,0.1895-0.1113,0.2637S16.9766,18,16.875,18h-0.75c-0.1016,0-0.1895-0.0371-0.2637-0.1113
	S15.75,17.7266,15.75,17.625v-0.75c0-0.1016,0.0371-0.1895,0.1113-0.2637S16.0234,16.5,16.125,16.5h0.75
	c0.1016,0,0.1895,0.0371,0.2637,0.1113S17.25,16.7734,17.25,16.875z M14.25,13.875v0.75c0,0.1016-0.0371,0.1895-0.1113,0.2637
	S13.9766,15,13.875,15h-0.75c-0.1016,0-0.1895-0.0371-0.2637-0.1113S12.75,14.7266,12.75,14.625v-0.75
	c0-0.1016,0.0371-0.1895,0.1113-0.2637S13.0234,13.5,13.125,13.5h0.75c0.1016,0,0.1895,0.0371,0.2637,0.1113
	S14.25,13.7734,14.25,13.875z M11.25,10.875v0.75c0,0.1016-0.0371,0.1895-0.1113,0.2637S10.9766,12,10.875,12h-0.75
	c-0.1016,0-0.1895-0.0371-0.2637-0.1113S9.75,11.7266,9.75,11.625v-0.75c0-0.1016,0.0371-0.1895,0.1113-0.2637
	S10.0234,10.5,10.125,10.5h0.75c0.1016,0,0.1895,0.0371,0.2637,0.1113S11.25,10.7734,11.25,10.875z M20.25,16.875v0.75
	c0,0.1016-0.0371,0.1895-0.1113,0.2637S19.9766,18,19.875,18h-0.75c-0.1016,0-0.1895-0.0371-0.2637-0.1113
	S18.75,17.7266,18.75,17.625v-0.75c0-0.1016,0.0371-0.1895,0.1113-0.2637S19.0234,16.5,19.125,16.5h0.75
	c0.1016,0,0.1895,0.0371,0.2637,0.1113S20.25,16.7734,20.25,16.875z M17.25,13.875v0.75c0,0.1016-0.0371,0.1895-0.1113,0.2637
	S16.9766,15,16.875,15h-0.75c-0.1016,0-0.1895-0.0371-0.2637-0.1113S15.75,14.7266,15.75,14.625v-0.75
	c0-0.1016,0.0371-0.1895,0.1113-0.2637S16.0234,13.5,16.125,13.5h0.75c0.1016,0,0.1895,0.0371,0.2637,0.1113
	S17.25,13.7734,17.25,13.875z M14.25,10.875v0.75c0,0.1016-0.0371,0.1895-0.1113,0.2637S13.9766,12,13.875,12h-0.75
	c-0.1016,0-0.1895-0.0371-0.2637-0.1113S12.75,11.7266,12.75,11.625v-0.75c0-0.1016,0.0371-0.1895,0.1113-0.2637
	S13.0234,10.5,13.125,10.5h0.75c0.1016,0,0.1895,0.0371,0.2637,0.1113S14.25,10.7734,14.25,10.875z M11.25,7.875v0.75
	c0,0.1016-0.0371,0.1895-0.1113,0.2637S10.9766,9,10.875,9h-0.75c-0.1016,0-0.1895-0.0371-0.2637-0.1113S9.75,8.7266,9.75,8.625
	v-0.75c0-0.1016,0.0371-0.1895,0.1113-0.2637S10.0234,7.5,10.125,7.5h0.75c0.1016,0,0.1895,0.0371,0.2637,0.1113
	S11.25,7.7734,11.25,7.875z M20.25,13.875v0.75c0,0.1016-0.0371,0.1895-0.1113,0.2637S19.9766,15,19.875,15h-0.75
	c-0.1016,0-0.1895-0.0371-0.2637-0.1113S18.75,14.7266,18.75,14.625v-0.75c0-0.1016,0.0371-0.1895,0.1113-0.2637
	S19.0234,13.5,19.125,13.5h0.75c0.1016,0,0.1895,0.0371,0.2637,0.1113S20.25,13.7734,20.25,13.875z M17.25,10.875v0.75
	c0,0.1016-0.0371,0.1895-0.1113,0.2637S16.9766,12,16.875,12h-0.75c-0.1016,0-0.1895-0.0371-0.2637-0.1113
	S15.75,11.7266,15.75,11.625v-0.75c0-0.1016,0.0371-0.1895,0.1113-0.2637S16.0234,10.5,16.125,10.5h0.75
	c0.1016,0,0.1895,0.0371,0.2637,0.1113S17.25,10.7734,17.25,10.875z M14.25,7.875v0.75c0,0.1016-0.0371,0.1895-0.1113,0.2637
	S13.9766,9,13.875,9h-0.75c-0.1016,0-0.1895-0.0371-0.2637-0.1113S12.75,8.7266,12.75,8.625v-0.75
	c0-0.1016,0.0371-0.1895,0.1113-0.2637S13.0234,7.5,13.125,7.5h0.75c0.1016,0,0.1895,0.0371,0.2637,0.1113S14.25,7.7734,14.25,7.875
	z M20.25,10.875v0.75c0,0.1016-0.0371,0.1895-0.1113,0.2637S19.9766,12,19.875,12h-0.75c-0.1016,0-0.1895-0.0371-0.2637-0.1113
	S18.75,11.7266,18.75,11.625v-0.75c0-0.1016,0.0371-0.1895,0.1113-0.2637S19.0234,10.5,19.125,10.5h0.75
	c0.1016,0,0.1895,0.0371,0.2637,0.1113S20.25,10.7734,20.25,10.875z M17.25,7.875v0.75c0,0.1016-0.0371,0.1895-0.1113,0.2637
	S16.9766,9,16.875,9h-0.75c-0.1016,0-0.1895-0.0371-0.2637-0.1113S15.75,8.7266,15.75,8.625v-0.75
	c0-0.1016,0.0371-0.1895,0.1113-0.2637S16.0234,7.5,16.125,7.5h0.75c0.1016,0,0.1895,0.0371,0.2637,0.1113S17.25,7.7734,17.25,7.875
	z M20.25,7.875v0.75c0,0.1016-0.0371,0.1895-0.1113,0.2637S19.9766,9,19.875,9h-0.75c-0.1016,0-0.1895-0.0371-0.2637-0.1113
	S18.75,8.7266,18.75,8.625v-0.75c0-0.1016,0.0371-0.1895,0.1113-0.2637S19.0234,7.5,19.125,7.5h0.75
	c0.1016,0,0.1895,0.0371,0.2637,0.1113S20.25,7.7734,20.25,7.875z M17.25,24h4.5V6H8.25v18h4.5v-2.625
	c0-0.1016,0.0371-0.1895,0.1113-0.2637S13.0234,21,13.125,21h3.75c0.1016,0,0.1895,0.0371,0.2637,0.1113S17.25,21.2734,17.25,21.375
	V24z M23.25,5.25v19.5c0,0.2031-0.0742,0.3789-0.2227,0.5273S22.7031,25.5,22.5,25.5h-15c-0.2031,0-0.3789-0.0742-0.5273-0.2227
	S6.75,24.9531,6.75,24.75V5.25c0-0.2031,0.0742-0.3789,0.2227-0.5273S7.2969,4.5,7.5,4.5h15c0.2031,0,0.3789,0.0742,0.5273,0.2227
	S23.25,5.0469,23.25,5.25z"/>
</svg>
