<?xml version="1.0" encoding="utf-8"?>
<svg version="1.1" id="Layer_1_copy_2" xmlns="http://www.w3.org/2000/svg" xmlns:xlink="http://www.w3.org/1999/xlink" x="0px"
	 y="0px" width="30px" height="30px" viewBox="0 0 30 30" style="enable-background:new 0 0 30 30;" xml:space="preserve">
<style type="text/css">
	.st0{fill:#666666;}
</style>
<path class="st0" d="M22.5,4.5c0.2031,0,0.3789,0.0742,0.5273,0.2227S23.25,5.0469,23.25,5.25v19.5
	c0,0.2031-0.0742,0.3789-0.2227,0.5273S22.7031,25.5,22.5,25.5h-15c-0.2031,0-0.3789-0.0742-0.5273-0.2227S6.75,24.9531,6.75,24.75
	V5.25c0-0.2031,0.0742-0.3789,0.2227-0.5273S7.2969,4.5,7.5,4.5H22.5z M12.75,7.875v0.75c0,0.1094,0.0352,0.1992,0.1055,0.2695
	S13.0156,9,13.125,9h0.75c0.1094,0,0.1992-0.0352,0.2695-0.1055S14.25,8.7344,14.25,8.625v-0.75
	c0-0.1094-0.0352-0.1992-0.1055-0.2695S13.9844,7.5,13.875,7.5h-0.75c-0.1094,0-0.1992,0.0352-0.2695,0.1055
	S12.75,7.7656,12.75,7.875z M12.75,10.875v0.75c0,0.1094,0.0352,0.1992,0.1055,0.2695S13.0156,12,13.125,12h0.75
	c0.1094,0,0.1992-0.0352,0.2695-0.1055S14.25,11.7344,14.25,11.625v-0.75c0-0.1094-0.0352-0.1992-0.1055-0.2695
	S13.9844,10.5,13.875,10.5h-0.75c-0.1094,0-0.1992,0.0352-0.2695,0.1055S12.75,10.7656,12.75,10.875z M12.75,13.875v0.75
	c0,0.1094,0.0352,0.1992,0.1055,0.2695S13.0156,15,13.125,15h0.75c0.1094,0,0.1992-0.0352,0.2695-0.1055S14.25,14.7344,14.25,14.625
	v-0.75c0-0.1094-0.0352-0.1992-0.1055-0.2695S13.9844,13.5,13.875,13.5h-0.75c-0.1094,0-0.1992,0.0352-0.2695,0.1055
	S12.75,13.7656,12.75,13.875z M12.75,16.875v0.75c0,0.1094,0.0352,0.1992,0.1055,0.2695S13.0156,18,13.125,18h0.75
	c0.1094,0,0.1992-0.0352,0.2695-0.1055S14.25,17.7344,14.25,17.625v-0.75c0-0.1094-0.0352-0.1992-0.1055-0.2695
	S13.9844,16.5,13.875,16.5h-0.75c-0.1094,0-0.1992,0.0352-0.2695,0.1055S12.75,16.7656,12.75,16.875z M11.25,20.625v-0.75
	c0-0.1094-0.0352-0.1992-0.1055-0.2695S10.9844,19.5,10.875,19.5h-0.75c-0.1094,0-0.1992,0.0352-0.2695,0.1055
	S9.75,19.7656,9.75,19.875v0.75c0,0.1094,0.0352,0.1992,0.1055,0.2695S10.0156,21,10.125,21h0.75
	c0.1094,0,0.1992-0.0352,0.2695-0.1055S11.25,20.7344,11.25,20.625z M11.25,17.625v-0.75c0-0.1094-0.0352-0.1992-0.1055-0.2695
	S10.9844,16.5,10.875,16.5h-0.75c-0.1094,0-0.1992,0.0352-0.2695,0.1055S9.75,16.7656,9.75,16.875v0.75
	c0,0.1094,0.0352,0.1992,0.1055,0.2695S10.0156,18,10.125,18h0.75c0.1094,0,0.1992-0.0352,0.2695-0.1055S11.25,17.7344,11.25,17.625
	z M11.25,14.625v-0.75c0-0.1094-0.0352-0.1992-0.1055-0.2695S10.9844,13.5,10.875,13.5h-0.75c-0.1094,0-0.1992,0.0352-0.2695,0.1055
	S9.75,13.7656,9.75,13.875v0.75c0,0.1094,0.0352,0.1992,0.1055,0.2695S10.0156,15,10.125,15h0.75
	c0.1094,0,0.1992-0.0352,0.2695-0.1055S11.25,14.7344,11.25,14.625z M11.25,11.625v-0.75c0-0.1094-0.0352-0.1992-0.1055-0.2695
	S10.9844,10.5,10.875,10.5h-0.75c-0.1094,0-0.1992,0.0352-0.2695,0.1055S9.75,10.7656,9.75,10.875v0.75
	c0,0.1094,0.0352,0.1992,0.1055,0.2695S10.0156,12,10.125,12h0.75c0.1094,0,0.1992-0.0352,0.2695-0.1055S11.25,11.7344,11.25,11.625
	z M11.25,8.625v-0.75c0-0.1094-0.0352-0.1992-0.1055-0.2695S10.9844,7.5,10.875,7.5h-0.75c-0.1094,0-0.1992,0.0352-0.2695,0.1055
	S9.75,7.7656,9.75,7.875v0.75c0,0.1094,0.0352,0.1992,0.1055,0.2695S10.0156,9,10.125,9h0.75c0.1094,0,0.1992-0.0352,0.2695-0.1055
	S11.25,8.7344,11.25,8.625z M17.25,23.625v-2.25c0-0.1094-0.0352-0.1992-0.1055-0.2695S16.9844,21,16.875,21h-3.75
	c-0.1094,0-0.1992,0.0352-0.2695,0.1055S12.75,21.2656,12.75,21.375v2.25c0,0.1094,0.0352,0.1992,0.1055,0.2695
	S13.0156,24,13.125,24h3.75c0.1094,0,0.1992-0.0352,0.2695-0.1055S17.25,23.7344,17.25,23.625z M17.25,17.625v-0.75
	c0-0.1094-0.0352-0.1992-0.1055-0.2695S16.9844,16.5,16.875,16.5h-0.75c-0.1094,0-0.1992,0.0352-0.2695,0.1055
	S15.75,16.7656,15.75,16.875v0.75c0,0.1094,0.0352,0.1992,0.1055,0.2695S16.0156,18,16.125,18h0.75
	c0.1094,0,0.1992-0.0352,0.2695-0.1055S17.25,17.7344,17.25,17.625z M17.25,14.625v-0.75c0-0.1094-0.0352-0.1992-0.1055-0.2695
	S16.9844,13.5,16.875,13.5h-0.75c-0.1094,0-0.1992,0.0352-0.2695,0.1055S15.75,13.7656,15.75,13.875v0.75
	c0,0.1094,0.0352,0.1992,0.1055,0.2695S16.0156,15,16.125,15h0.75c0.1094,0,0.1992-0.0352,0.2695-0.1055S17.25,14.7344,17.25,14.625
	z M17.25,11.625v-0.75c0-0.1094-0.0352-0.1992-0.1055-0.2695S16.9844,10.5,16.875,10.5h-0.75c-0.1094,0-0.1992,0.0352-0.2695,0.1055
	S15.75,10.7656,15.75,10.875v0.75c0,0.1094,0.0352,0.1992,0.1055,0.2695S16.0156,12,16.125,12h0.75
	c0.1094,0,0.1992-0.0352,0.2695-0.1055S17.25,11.7344,17.25,11.625z M17.25,8.625v-0.75c0-0.1094-0.0352-0.1992-0.1055-0.2695
	S16.9844,7.5,16.875,7.5h-0.75c-0.1094,0-0.1992,0.0352-0.2695,0.1055S15.75,7.7656,15.75,7.875v0.75
	c0,0.1094,0.0352,0.1992,0.1055,0.2695S16.0156,9,16.125,9h0.75c0.1094,0,0.1992-0.0352,0.2695-0.1055S17.25,8.7344,17.25,8.625z
	 M20.25,20.625v-0.75c0-0.1094-0.0352-0.1992-0.1055-0.2695S19.9844,19.5,19.875,19.5h-0.75c-0.1094,0-0.1992,0.0352-0.2695,0.1055
	S18.75,19.7656,18.75,19.875v0.75c0,0.1094,0.0352,0.1992,0.1055,0.2695S19.0156,21,19.125,21h0.75
	c0.1094,0,0.1992-0.0352,0.2695-0.1055S20.25,20.7344,20.25,20.625z M20.25,17.625v-0.75c0-0.1094-0.0352-0.1992-0.1055-0.2695
	S19.9844,16.5,19.875,16.5h-0.75c-0.1094,0-0.1992,0.0352-0.2695,0.1055S18.75,16.7656,18.75,16.875v0.75
	c0,0.1094,0.0352,0.1992,0.1055,0.2695S19.0156,18,19.125,18h0.75c0.1094,0,0.1992-0.0352,0.2695-0.1055S20.25,17.7344,20.25,17.625
	z M20.25,14.625v-0.75c0-0.1094-0.0352-0.1992-0.1055-0.2695S19.9844,13.5,19.875,13.5h-0.75c-0.1094,0-0.1992,0.0352-0.2695,0.1055
	S18.75,13.7656,18.75,13.875v0.75c0,0.1094,0.0352,0.1992,0.1055,0.2695S19.0156,15,19.125,15h0.75
	c0.1094,0,0.1992-0.0352,0.2695-0.1055S20.25,14.7344,20.25,14.625z M20.25,11.625v-0.75c0-0.1094-0.0352-0.1992-0.1055-0.2695
	S19.9844,10.5,19.875,10.5h-0.75c-0.1094,0-0.1992,0.0352-0.2695,0.1055S18.75,10.7656,18.75,10.875v0.75
	c0,0.1094,0.0352,0.1992,0.1055,0.2695S19.0156,12,19.125,12h0.75c0.1094,0,0.1992-0.0352,0.2695-0.1055S20.25,11.7344,20.25,11.625
	z M20.25,8.625v-0.75c0-0.1094-0.0352-0.1992-0.1055-0.2695S19.9844,7.5,19.875,7.5h-0.75c-0.1094,0-0.1992,0.0352-0.2695,0.1055
	S18.75,7.7656,18.75,7.875v0.75c0,0.1094,0.0352,0.1992,0.1055,0.2695S19.0156,9,19.125,9h0.75
	c0.1094,0,0.1992-0.0352,0.2695-0.1055S20.25,8.7344,20.25,8.625z"/>
</svg>
