<?xml version="1.0" encoding="utf-8"?>
<svg version="1.1" id="Layer_1_copy_2" xmlns="http://www.w3.org/2000/svg" xmlns:xlink="http://www.w3.org/1999/xlink" x="0px"
	 y="0px" width="30px" height="30px" viewBox="0 0 30 30" style="enable-background:new 0 0 30 30;" xml:space="preserve">
<style type="text/css">
	.st0{fill:#666666;}
</style>
<path class="st0" d="M23.7981,22.6052c0.757-0.3136,1.1161-1.1211,0.8025-1.8781c-0.3136-0.757-1.07-1.2583-1.9939-0.8756l0,0
	l-5.7217,2.37c0.0504,0.3399,0.0213,0.6485-0.0993,0.9398c-0.1929,0.4661-0.547,0.8359-0.9797,1.0151
	c-0.4328,0.1793-0.9286,0.2066-1.3946,0.0135l-5.2137-2.1297c-0.1704-0.0698-0.2507-0.2611-0.1809-0.4315
	c0.0692-0.1703,0.265-0.2504,0.4354-0.1806l5.2179,2.1375c0.5933,0.2454,1.2751-0.0362,1.5208-0.6284
	c0.2433-0.5874-0.0321-1.2623-0.6145-1.5129c-0.0093-0.0028-0.0185-0.0063-0.0263-0.0094c-0.0098-0.0041-0.0189-0.0083-0.0281-0.013
	L7.599,18.0851c-0.1693-0.0704-0.4676-0.1219-0.637-0.0517l-8.803,3.6463c-0.1694,0.0702-0.2513,0.3867-0.1812,0.5561
	c0,0,1.9708,4.758,2.041,4.9274l-0.0213-0.0513c0.0702,0.1694,0.2882,0.1813,0.4575,0.1111l6.3709-2.6389
	c0.1694-0.0702,0.4663-0.0154,0.6339,0.059l5.2657,2.3171c0.1676,0.0744,0.4326,0.0522,0.602-0.018L23.7981,22.6052z"/>
<g>
	<path class="st0" d="M9.3238,8.6146c0,0,1.7038-6.1102,7.2125-4.8079l0.3635,0.1786l0.497-1.8247l1.8655,4.8106l-4.5198,1.6992
		l0.7064-1.6578C15.4488,7.0126,13.6491,4.9088,9.3238,8.6146z"/>
	<path class="st0" d="M19.8194,7.6139c0,0,4.7702,4.1788,1.2133,8.5833l-0.319,0.2483l1.4297,1.2383l-5.1432-0.3982l0.4238-4.8099
		l1.1879,1.3522C18.612,13.8279,21.2873,13.1163,19.8194,7.6139z"/>
	<path class="st0" d="M15.464,17.4794c0,0-6.1728,1.4618-7.694-3.9907l-0.0193-0.4041L5.9145,13.531l3.3088-3.9577l3.6725,3.1346
		l-1.7936,0.1845C11.1022,12.8924,10.1304,15.4833,15.464,17.4794z"/>
</g>
</svg>
