<?xml version="1.0" encoding="utf-8"?>
<svg version="1.1" id="Layer_1" xmlns="http://www.w3.org/2000/svg" xmlns:xlink="http://www.w3.org/1999/xlink" x="0px" y="0px"
	width="96px" height="96px" viewBox="0 0 96 96" style="enable-background:new 0 0 96 96;" xml:space="preserve">
<style type="text/css">
	.st0{fill:#95D600;}
	.st1{fill:#FFFFFF;}
</style>
<path class="st0" d="M48,95.2c26.068,0,47.2-21.132,47.2-47.2S74.068,0.8,48,0.8S0.8,21.932,0.8,48S21.932,95.2,48,95.2"/>
<path class="st1" d="M28.9486,61.3738c-0.988,1.519-1.48,3.067-1.48,4.638c0,0.88,0.106,1.813,0.32,2.799l-8.916-15.554
	c-0.534-0.931-0.8-1.771-0.8-2.519c0-0.825,0.4-1.879,1.2-3.159l2.878-4.477l-2.719-1.639c-0.374-0.24-0.559-0.426-0.559-0.56
	c0-0.586,0.291-0.892,0.879-0.92l13.115-0.32l5.918,11.115c0.211,0.428,0.32,0.76,0.32,1c0,0.374-0.229,0.559-0.68,0.559
	l-2.679-1.639L28.9486,61.3738z M39.1841,41.6223l7.357-11.395c-2.747-6.264-5.666-9.396-8.757-9.396
	c-1.867,0-3.118,0.519-3.758,1.559l-6.957,11.115L39.1841,41.6223z M33.1865,72.4892h14.194v-14.754h-13.674
	c-1.679,2.399-2.733,4.026-3.159,4.878c-0.694,1.36-1.04,2.747-1.04,4.158C29.5075,70.5842,30.7335,72.4892,33.1865,72.4892
	 M62.414,38.9033l6.317-10.636c0.212-0.371,0.32-0.759,0.32-1.159c0-0.48-0.16-0.72-0.48-0.72c0.052,0-0.159,0.08-0.639,0.24
	l-2.879,1.32l-2.639-5.238c-1.174-2.345-3.519-3.519-7.037-3.519H38.944c1.999,0.614,3.359,1.214,4.079,1.799
	c1.679,1.334,3.398,3.839,5.157,7.517l3.278,6.878l-2.439,1.159c-0.24,0.108-0.36,0.32-0.36,0.64c0,0.4,0.252,0.628,0.76,0.68
	L62.414,38.9033z M68.7313,70.2901l9.196-16.713c-1.359,1.547-2.839,2.587-4.438,3.119c-1.279,0.427-3.107,0.639-5.478,0.639
	h-10.235v-2.119c0-0.825-0.2-1.239-0.6-1.239c-0.294,0-0.508,0.108-0.64,0.319l-6.477,11.236l6.717,10.316
	c0.506,0.774,0.946,1.079,1.319,0.919c0.372-0.106,0.56-0.305,0.56-0.6v-3.518h5.678
	C66.4123,72.6491,67.8773,71.8631,68.7313,70.2901 M64.7328,55.2162h6.118c1.465,0,2.984-0.64,4.558-1.919
	c1.679-1.331,2.519-2.745,2.519-4.238c0-0.692-0.229-1.372-0.68-2.04l-7.277-11.114l-12.515,7.277L64.7328,55.2162z"/>
</svg>
